<svg id="Layer_1" data-name="Layer 1" xmlns="http://www.w3.org/2000/svg" viewBox="0 0 556.33 75.48"><defs><style>.cls-1{fill:#b1080f;}.cls-2{fill:#e50609;}.cls-3{fill:#68676c;}</style></defs><title>AP_basis_outline_q</title><rect class="cls-1" x="164.64" width="7.26" height="75.16"/><polygon class="cls-2" points="37.59 0 0 75.16 37.59 75.16 37.59 0"/><polygon class="cls-1" points="37.59 0 37.59 75.16 75.17 75.16 37.59 0"/><path class="cls-2" d="M459.86,382.79H433.55v52.62h26.31a26.31,26.31,0,1,0,0-52.62Z" transform="translate(-350.87 -382.79)"/><rect class="cls-1" x="82.68" width="18.79" height="75.16"/><path class="cls-3" d="M576.35,414.62,573.71,407H563l-2.54,7.58h-6.3l10.74-30.53a8.43,8.43,0,0,1,1.55-.44,10.38,10.38,0,0,1,2.15-.21,7.89,7.89,0,0,1,1.13.09,4,4,0,0,1,1.23.39,4.29,4.29,0,0,1,1.13.86,4,4,0,0,1,.86,1.53l9.95,28.31Zm-7.92-25.4-4.21,13.19h8.29Z" transform="translate(-350.87 -382.79)"/><path class="cls-3" d="M607.62,392.74a11.52,11.52,0,0,1-1,5.09,8.81,8.81,0,0,1-2.75,3.35,11.2,11.2,0,0,1-4,1.83,20.51,20.51,0,0,1-4.84.56h-2.22v11.05h-6.38V383.81c1.38-.15,2.8-.27,4.25-.35s2.76-.11,3.93-.11q6.81,0,9.93,2.38A8.27,8.27,0,0,1,607.62,392.74Zm-6.48.32a4.63,4.63,0,0,0-1.64-4,7.07,7.07,0,0,0-4.28-1.21,19.35,19.35,0,0,0-2.5.14v11.11h1.53a8.5,8.5,0,0,0,5.14-1.32Q601.15,396.44,601.14,393.06Z" transform="translate(-350.87 -382.79)"/><path class="cls-3" d="M628.72,396.21h11.66V383.67c.43-.06.86-.12,1.29-.16a9.42,9.42,0,0,1,1-.07,7.24,7.24,0,0,1,1.32.14,3.63,3.63,0,0,1,1.32.53,3,3,0,0,1,1,1.09,3.65,3.65,0,0,1,.4,1.85v27.57h-6.34V401.21H628.72v13.41h-6.34V383.67c.43-.06.86-.12,1.27-.16a8.54,8.54,0,0,1,1-.07,7.66,7.66,0,0,1,1.41.14,3.63,3.63,0,0,1,1.32.53,3.11,3.11,0,0,1,1,1.09,3.77,3.77,0,0,1,.39,1.85Z" transform="translate(-350.87 -382.79)"/><path class="cls-3" d="M680,399a24.93,24.93,0,0,1-.78,6.32,14.84,14.84,0,0,1-2.5,5.23,12,12,0,0,1-4.4,3.53,14.7,14.7,0,0,1-6.47,1.3,14.17,14.17,0,0,1-6.39-1.32,11.81,11.81,0,0,1-4.3-3.56,14.89,14.89,0,0,1-2.43-5.21,24.81,24.81,0,0,1-.76-6.24,22.19,22.19,0,0,1,.83-6.16,14.43,14.43,0,0,1,2.59-5.11,12.59,12.59,0,0,1,4.44-3.49,16.35,16.35,0,0,1,12.66-.05,11.8,11.8,0,0,1,4.28,3.4,14.42,14.42,0,0,1,2.45,5.07A24.25,24.25,0,0,1,680,399Zm-6.52.05a22.67,22.67,0,0,0-.37-4.21,10.83,10.83,0,0,0-1.25-3.5,6.91,6.91,0,0,0-2.27-2.38,6.3,6.3,0,0,0-3.42-.88,6.5,6.5,0,0,0-5.95,3.26,10.86,10.86,0,0,0-1.29,3.5,21.81,21.81,0,0,0-.39,4.21,22.46,22.46,0,0,0,.39,4.25,12,12,0,0,0,1.27,3.61,7,7,0,0,0,2.31,2.5,7.13,7.13,0,0,0,7,0,6.82,6.82,0,0,0,2.29-2.5,12.59,12.59,0,0,0,1.25-3.61A22.46,22.46,0,0,0,673.46,399.08Z" transform="translate(-350.87 -382.79)"/><path class="cls-3" d="M699,402.5v-4.72H710.2v13.88a7.18,7.18,0,0,1-1.3,1.16,11.23,11.23,0,0,1-2.27,1.23,19.27,19.27,0,0,1-3.28,1,21.51,21.51,0,0,1-4.3.39,15.8,15.8,0,0,1-6.5-1.23,12.2,12.2,0,0,1-4.54-3.37,14,14,0,0,1-2.64-5.14,23.55,23.55,0,0,1-.85-6.5,21.83,21.83,0,0,1,.9-6.41,14.24,14.24,0,0,1,2.75-5.11,12.67,12.67,0,0,1,4.68-3.4,16.56,16.56,0,0,1,6.66-1.23,15.28,15.28,0,0,1,3.63.44,14.68,14.68,0,0,1,3.15,1.14,8.08,8.08,0,0,1,2.19,1.55,2.5,2.5,0,0,1,.84,1.73,3.24,3.24,0,0,1-.67,1.76,9.17,9.17,0,0,1-1.6,1.76c-.37-.34-.79-.7-1.27-1.07a10,10,0,0,0-3.66-1.78,9.78,9.78,0,0,0-2.52-.3,8.45,8.45,0,0,0-4.16.93,7.2,7.2,0,0,0-2.64,2.43,10.24,10.24,0,0,0-1.39,3.44,19.07,19.07,0,0,0-.41,4,19.57,19.57,0,0,0,.44,4.25,10.76,10.76,0,0,0,1.43,3.59,7.5,7.5,0,0,0,2.68,2.5,8.49,8.49,0,0,0,4.19.95,9.19,9.19,0,0,0,2-.19,8.59,8.59,0,0,0,1.38-.41,5.85,5.85,0,0,0,1.07-.65V402.5Z" transform="translate(-350.87 -382.79)"/><path class="cls-3" d="M732.59,409.72a3.7,3.7,0,0,1,3,1,3.54,3.54,0,0,1,.81,2.26c0,.34,0,.63,0,.86s0,.49-.07.76h-20v-31h19.3a7,7,0,0,1,.11.86c0,.23,0,.52,0,.86a3.23,3.23,0,0,1-.84,2.43,4.48,4.48,0,0,1-3.1.8h-9.11v7.64h9.81v5h-9.81v8.56Z" transform="translate(-350.87 -382.79)"/><path class="cls-3" d="M740.5,407.5a20.76,20.76,0,0,0,3.17,2,9.44,9.44,0,0,0,4.46,1,7.55,7.55,0,0,0,1.9-.24,5,5,0,0,0,1.64-.71,3.82,3.82,0,0,0,1.18-1.28,3.74,3.74,0,0,0,.47-1.94,3.8,3.8,0,0,0-.51-2,4.77,4.77,0,0,0-1.34-1.42,9.36,9.36,0,0,0-2-1c-.74-.28-1.49-.56-2.26-.83-1-.34-2-.71-3-1.11a10.58,10.58,0,0,1-2.71-1.58,7.43,7.43,0,0,1-2-2.47,8.4,8.4,0,0,1-.77-3.82,8.55,8.55,0,0,1,.88-3.93,8.2,8.2,0,0,1,2.41-2.85,11.2,11.2,0,0,1,3.52-1.71,15.18,15.18,0,0,1,4.21-.58,16.93,16.93,0,0,1,2.84.23,19.15,19.15,0,0,1,2.36.56,13.42,13.42,0,0,1,1.76.67,7.34,7.34,0,0,1,1.09.62,2.31,2.31,0,0,1,1.29,2.09,3.61,3.61,0,0,1-.48,1.5,8.11,8.11,0,0,1-1.37,1.87,14.2,14.2,0,0,0-3-1.75,9.26,9.26,0,0,0-5.62-.67,5.13,5.13,0,0,0-1.6.55,3.24,3.24,0,0,0-1.18,1.09,3,3,0,0,0-.46,1.71,3,3,0,0,0,.46,1.69,4.37,4.37,0,0,0,1.25,1.25,9.78,9.78,0,0,0,1.83.95l2.15.83c1,.37,2,.77,3,1.2a12,12,0,0,1,2.77,1.64,8,8,0,0,1,2,2.5,8.16,8.16,0,0,1,.78,3.77,10.33,10.33,0,0,1-.85,4.33,9,9,0,0,1-2.38,3.17,10.19,10.19,0,0,1-3.68,1.94,16.33,16.33,0,0,1-4.7.65,17.73,17.73,0,0,1-5.39-.67,15.61,15.61,0,0,1-3-1.23,3.55,3.55,0,0,1-.93-.88,1.88,1.88,0,0,1-.37-1.15,4,4,0,0,1,.63-1.9A17.74,17.74,0,0,1,740.5,407.5Z" transform="translate(-350.87 -382.79)"/><path class="cls-3" d="M786.68,412.87a7.16,7.16,0,0,1-.91.69,8.86,8.86,0,0,1-1.69.83,15.11,15.11,0,0,1-2.56.72,17.8,17.8,0,0,1-3.45.3,16,16,0,0,1-6.48-1.2,12,12,0,0,1-4.51-3.36,13.59,13.59,0,0,1-2.61-5.09,23.42,23.42,0,0,1-.84-6.45,22.44,22.44,0,0,1,.91-6.5,14.59,14.59,0,0,1,2.7-5.16,12.55,12.55,0,0,1,4.51-3.4,15.31,15.31,0,0,1,6.37-1.23,14.8,14.8,0,0,1,3.26.33,15.77,15.77,0,0,1,2.54.76,9.19,9.19,0,0,1,1.81.93,9.32,9.32,0,0,1,1.08.81,3.59,3.59,0,0,1,.72.87,2.15,2.15,0,0,1,.3,1.11,3.11,3.11,0,0,1-.69,1.86,13.75,13.75,0,0,1-1.53,1.71c-.37-.37-.79-.75-1.25-1.14a8.45,8.45,0,0,0-1.55-1,9.8,9.8,0,0,0-1.94-.74,9.17,9.17,0,0,0-2.43-.31,7.69,7.69,0,0,0-4,.95,7.6,7.6,0,0,0-2.56,2.48,10.51,10.51,0,0,0-1.39,3.49,19.13,19.13,0,0,0-.42,4,20.2,20.2,0,0,0,.42,4.17A9.91,9.91,0,0,0,772,406.8a7.76,7.76,0,0,0,2.66,2.46,8.34,8.34,0,0,0,4.1.92,8.51,8.51,0,0,0,2.38-.32,9.72,9.72,0,0,0,1.92-.79,10,10,0,0,0,1.46-1c.41-.34.76-.63,1-.88l.65.79c.24.31.47.63.69,1a8.59,8.59,0,0,1,.56,1,2.3,2.3,0,0,1,.23.92,2.13,2.13,0,0,1-.23,1A4.89,4.89,0,0,1,786.68,412.87Z" transform="translate(-350.87 -382.79)"/><path class="cls-3" d="M798.75,396.21h11.66V383.67c.43-.06.86-.12,1.3-.16a9.12,9.12,0,0,1,1-.07,7.24,7.24,0,0,1,1.32.14,3.63,3.63,0,0,1,1.32.53,3.11,3.11,0,0,1,1,1.09,3.77,3.77,0,0,1,.39,1.85v27.57h-6.34V401.21H798.75v13.41h-6.34V383.67c.43-.06.86-.12,1.27-.16a8.54,8.54,0,0,1,1-.07,7.49,7.49,0,0,1,1.41.14,3.63,3.63,0,0,1,1.32.53,3,3,0,0,1,1,1.09,3.77,3.77,0,0,1,.39,1.85Z" transform="translate(-350.87 -382.79)"/><path class="cls-3" d="M850,399a24.93,24.93,0,0,1-.79,6.32,14.84,14.84,0,0,1-2.5,5.23,12,12,0,0,1-4.4,3.53,14.64,14.64,0,0,1-6.47,1.3,14.17,14.17,0,0,1-6.39-1.32,11.81,11.81,0,0,1-4.3-3.56,14.89,14.89,0,0,1-2.43-5.21,24.81,24.81,0,0,1-.76-6.24,22.19,22.19,0,0,1,.83-6.16,14.6,14.6,0,0,1,2.59-5.11,12.59,12.59,0,0,1,4.44-3.49,16.35,16.35,0,0,1,12.66-.05,11.72,11.72,0,0,1,4.28,3.4,14.42,14.42,0,0,1,2.45,5.07A24.24,24.24,0,0,1,850,399Zm-6.53.05a22.67,22.67,0,0,0-.37-4.21,10.83,10.83,0,0,0-1.25-3.5A6.82,6.82,0,0,0,839.6,389a6.3,6.3,0,0,0-3.42-.88,6.5,6.5,0,0,0-5.94,3.26,10.64,10.64,0,0,0-1.3,3.5,21.81,21.81,0,0,0-.39,4.21,22.46,22.46,0,0,0,.39,4.25,12,12,0,0,0,1.27,3.61,7,7,0,0,0,2.32,2.5,7.11,7.11,0,0,0,7,0,6.82,6.82,0,0,0,2.29-2.5,12.29,12.29,0,0,0,1.25-3.61A22.46,22.46,0,0,0,843.49,399.08Z" transform="translate(-350.87 -382.79)"/><path class="cls-3" d="M882.59,399a24.48,24.48,0,0,1-.79,6.32,14.67,14.67,0,0,1-2.5,5.23,11.94,11.94,0,0,1-4.39,3.53,14.71,14.71,0,0,1-6.48,1.3,14.17,14.17,0,0,1-6.39-1.32,11.89,11.89,0,0,1-4.3-3.56,14.89,14.89,0,0,1-2.43-5.21,24.81,24.81,0,0,1-.76-6.24,22.57,22.57,0,0,1,.83-6.16,14.6,14.6,0,0,1,2.59-5.11,12.72,12.72,0,0,1,4.45-3.49,16.33,16.33,0,0,1,12.65-.05,11.72,11.72,0,0,1,4.28,3.4,14.25,14.25,0,0,1,2.45,5.07A23.82,23.82,0,0,1,882.59,399Zm-6.53.05a22.67,22.67,0,0,0-.37-4.21,10.6,10.6,0,0,0-1.25-3.5,6.89,6.89,0,0,0-2.26-2.38,6.36,6.36,0,0,0-3.43-.88,6.5,6.5,0,0,0-5.94,3.26,10.87,10.87,0,0,0-1.3,3.5,21.81,21.81,0,0,0-.39,4.21,22.46,22.46,0,0,0,.39,4.25,11.76,11.76,0,0,0,1.28,3.61,6.87,6.87,0,0,0,2.31,2.5,7.11,7.11,0,0,0,7,0,6.74,6.74,0,0,0,2.29-2.5,12.29,12.29,0,0,0,1.25-3.61A22.46,22.46,0,0,0,876.06,399.08Z" transform="translate(-350.87 -382.79)"/><path class="cls-3" d="M894.43,409.49h9a5.18,5.18,0,0,1,1.85.28,2.8,2.8,0,0,1,1.16.74,2.51,2.51,0,0,1,.58,1.06,4.5,4.5,0,0,1,.16,1.2c0,.31,0,.68,0,1.11a3.45,3.45,0,0,1-.07.74H888.05V383.67c.43-.06.85-.12,1.27-.16a8.39,8.39,0,0,1,.95-.07,7.66,7.66,0,0,1,1.41.14,3.88,3.88,0,0,1,1.34.53,2.9,2.9,0,0,1,1,1.09,3.77,3.77,0,0,1,.39,1.85Z" transform="translate(-350.87 -382.79)"/><path class="cls-3" d="M576.35,457.81l-2.64-7.59H563l-2.54,7.59h-6.3l10.74-30.54a9.3,9.3,0,0,1,1.55-.44,10.38,10.38,0,0,1,2.15-.21,7.89,7.89,0,0,1,1.13.09,4.32,4.32,0,0,1,1.23.4,4,4,0,0,1,1.13.85,4,4,0,0,1,.86,1.53l9.95,28.32Zm-7.92-25.4-4.21,13.18h8.29Z" transform="translate(-350.87 -382.79)"/><path class="cls-3" d="M610.77,457.81H605.4l-13.19-20.36v20.36h-6.06V426.9c.31-.06.73-.12,1.25-.19a14,14,0,0,1,1.58-.09,4.45,4.45,0,0,1,2.31.51,4.69,4.69,0,0,1,1.48,1.57l11.94,19.48V426.85l1.2-.16c.37,0,.66-.07.88-.07a7.36,7.36,0,0,1,1.39.14,3.47,3.47,0,0,1,1.27.53,3.17,3.17,0,0,1,.95,1.09,4,4,0,0,1,.37,1.85Z" transform="translate(-350.87 -382.79)"/><path class="cls-3" d="M623.82,432h-9.67v-.05A6.46,6.46,0,0,1,614,431c0-.25,0-.54,0-.88a3.42,3.42,0,0,1,.9-2.29,3.8,3.8,0,0,1,3-1h21.75a14.46,14.46,0,0,1,.13,2A3.3,3.3,0,0,1,639,431a3.67,3.67,0,0,1-3,1H630.2v25.82h-6.38Z" transform="translate(-350.87 -382.79)"/><path class="cls-3" d="M671.38,458h-5.23l-5.23-16.2-5,16.2H650.7l-10.32-30.82a8.05,8.05,0,0,1,1.6-.41,9.74,9.74,0,0,1,1.78-.19,4.15,4.15,0,0,1,2.66.77,4.47,4.47,0,0,1,1.41,2.24l6,19.8,4.54-14.53L656.25,427c.58-.12,1.13-.22,1.64-.3a9.15,9.15,0,0,1,1.41-.12,3.91,3.91,0,0,1,2.66.79,4.56,4.56,0,0,1,1.32,2.27l5.46,19.24L674,430.05a5.52,5.52,0,0,1,1.39-2.46,3.64,3.64,0,0,1,2.68-1,9.88,9.88,0,0,1,1.85.16c.53.11,1,.23,1.44.35Z" transform="translate(-350.87 -382.79)"/><path class="cls-3" d="M701.08,452.9a3.7,3.7,0,0,1,3,1,3.55,3.55,0,0,1,.81,2.27c0,.34,0,.62,0,.85s0,.49-.07.77h-20v-31h19.3a6.84,6.84,0,0,1,.11.85c0,.23,0,.52,0,.86a3.23,3.23,0,0,1-.84,2.43,4.45,4.45,0,0,1-3.1.81h-9.11v7.63H701v4.95h-9.81v8.56Z" transform="translate(-350.87 -382.79)"/><path class="cls-3" d="M730.23,435.69a10.73,10.73,0,0,1-.49,3.42,8.94,8.94,0,0,1-1.31,2.6,8.52,8.52,0,0,1-1.9,1.85,9.74,9.74,0,0,1-2.18,1.15L732,457.48a10.22,10.22,0,0,1-1.85.58,8.82,8.82,0,0,1-1.85.21,5.25,5.25,0,0,1-2.87-.74,6.93,6.93,0,0,1-2.13-2.41l-5.27-9h-2.55v11.66h-6.38V427c1.38-.15,2.8-.27,4.25-.34s2.76-.12,3.93-.12c4.48,0,7.75.76,9.84,2.27S730.23,432.61,730.23,435.69Zm-6.66.6c0-1.94-.51-3.31-1.53-4.09a6.63,6.63,0,0,0-4.16-1.18c-.56,0-1,0-1.44,0l-1,.1v10.68h2.18a6.5,6.5,0,0,0,4.37-1.36A5.2,5.2,0,0,0,723.57,436.29Z" transform="translate(-350.87 -382.79)"/><path class="cls-3" d="M756.93,435.92a11.49,11.49,0,0,1-1,5.09,9,9,0,0,1-2.75,3.36,11.33,11.33,0,0,1-4,1.82,20.51,20.51,0,0,1-4.84.56h-2.22v11.06h-6.38V427c1.39-.15,2.81-.27,4.26-.34s2.76-.12,3.93-.12q6.79,0,9.92,2.38A8.29,8.29,0,0,1,756.93,435.92Zm-6.48.33a4.67,4.67,0,0,0-1.64-4,7.11,7.11,0,0,0-4.28-1.2,17.71,17.71,0,0,0-2.5.14v11.1h1.52a8.46,8.46,0,0,0,5.14-1.32Q750.45,439.62,750.45,436.25Z" transform="translate(-350.87 -382.79)"/><path class="cls-3" d="M777.56,452.9a3.7,3.7,0,0,1,3,1,3.55,3.55,0,0,1,.81,2.27c0,.34,0,.62,0,.85s0,.49-.07.77h-20v-31h19.3a6.84,6.84,0,0,1,.11.85c0,.23,0,.52,0,.86a3.23,3.23,0,0,1-.84,2.43,4.45,4.45,0,0,1-3.1.81h-9.11v7.63h9.81v4.95h-9.81v8.56Z" transform="translate(-350.87 -382.79)"/><path class="cls-3" d="M810,457.81h-5.37l-13.19-20.36v20.36h-6.06V426.9c.31-.06.73-.12,1.25-.19a14,14,0,0,1,1.58-.09,4.45,4.45,0,0,1,2.31.51A4.69,4.69,0,0,1,792,428.7l11.94,19.48V426.85l1.2-.16c.37,0,.66-.07.88-.07a7.36,7.36,0,0,1,1.39.14,3.47,3.47,0,0,1,1.27.53,3.17,3.17,0,0,1,1,1.09,4,4,0,0,1,.37,1.85Z" transform="translate(-350.87 -382.79)"/></svg>